<mxfile host="app.diagrams.net" modified="2020-10-27T10:57:13.949Z" agent="5.0 (Windows NT 10.0; Win64; x64) AppleWebKit/537.36 (KHTML, like Gecko) Chrome/86.0.4240.111 Safari/537.36 Edg/86.0.622.51" etag="9_iLCkPk4nQO7oirtKid" version="13.8.3" type="github">
  <diagram id="UbaRQ7SZipwC_jb8pstA" name="Page-1">
    <mxGraphModel dx="1673" dy="934" grid="1" gridSize="10" guides="1" tooltips="1" connect="1" arrows="1" fold="1" page="1" pageScale="1" pageWidth="850" pageHeight="1100" math="0" shadow="0">
      <root>
        <mxCell id="0" />
        <mxCell id="1" parent="0" />
        <mxCell id="t10QagFbox6d3jLnH6TC-21" style="edgeStyle=none;rounded=0;orthogonalLoop=1;jettySize=auto;html=1;entryX=-0.038;entryY=0.504;entryDx=0;entryDy=0;entryPerimeter=0;endArrow=none;endFill=0;" edge="1" parent="1" source="t10QagFbox6d3jLnH6TC-1" target="t10QagFbox6d3jLnH6TC-2">
          <mxGeometry relative="1" as="geometry">
            <mxPoint x="278.38" y="326.8000000000002" as="targetPoint" />
          </mxGeometry>
        </mxCell>
        <mxCell id="t10QagFbox6d3jLnH6TC-1" value="The Clerk" style="shape=umlActor;verticalLabelPosition=bottom;verticalAlign=top;html=1;" vertex="1" parent="1">
          <mxGeometry x="30" y="294" width="30" height="60" as="geometry" />
        </mxCell>
        <mxCell id="t10QagFbox6d3jLnH6TC-9" style="edgeStyle=orthogonalEdgeStyle;rounded=0;orthogonalLoop=1;jettySize=auto;html=1;endArrow=none;endFill=0;entryX=1;entryY=0.625;entryDx=0;entryDy=0;entryPerimeter=0;" edge="1" parent="1" source="t10QagFbox6d3jLnH6TC-2" target="t10QagFbox6d3jLnH6TC-2">
          <mxGeometry relative="1" as="geometry">
            <mxPoint x="440" y="214" as="targetPoint" />
          </mxGeometry>
        </mxCell>
        <mxCell id="t10QagFbox6d3jLnH6TC-10" style="rounded=0;orthogonalLoop=1;jettySize=auto;html=1;entryX=0.094;entryY=0.345;entryDx=0;entryDy=0;entryPerimeter=0;endArrow=none;endFill=0;" edge="1" parent="1" source="t10QagFbox6d3jLnH6TC-2" target="t10QagFbox6d3jLnH6TC-3">
          <mxGeometry relative="1" as="geometry" />
        </mxCell>
        <mxCell id="t10QagFbox6d3jLnH6TC-2" value="FormMaintain&lt;br&gt;Product" style="shape=umlBoundary;whiteSpace=wrap;html=1;" vertex="1" parent="1">
          <mxGeometry x="340" y="284" width="90" height="80" as="geometry" />
        </mxCell>
        <mxCell id="t10QagFbox6d3jLnH6TC-14" style="edgeStyle=none;rounded=0;orthogonalLoop=1;jettySize=auto;html=1;entryX=0.5;entryY=0;entryDx=0;entryDy=0;endArrow=none;endFill=0;" edge="1" parent="1" source="t10QagFbox6d3jLnH6TC-3" target="t10QagFbox6d3jLnH6TC-13">
          <mxGeometry relative="1" as="geometry" />
        </mxCell>
        <mxCell id="t10QagFbox6d3jLnH6TC-27" style="edgeStyle=orthogonalEdgeStyle;rounded=0;orthogonalLoop=1;jettySize=auto;html=1;endArrow=none;endFill=0;entryX=0.848;entryY=0.885;entryDx=0;entryDy=0;entryPerimeter=0;" edge="1" parent="1" source="t10QagFbox6d3jLnH6TC-3" target="t10QagFbox6d3jLnH6TC-3">
          <mxGeometry relative="1" as="geometry">
            <mxPoint x="784.9999999999995" y="270" as="targetPoint" />
          </mxGeometry>
        </mxCell>
        <mxCell id="t10QagFbox6d3jLnH6TC-3" value="CreateProduct&lt;br&gt;Controller" style="ellipse;shape=umlControl;whiteSpace=wrap;html=1;" vertex="1" parent="1">
          <mxGeometry x="750" y="294" width="70" height="80" as="geometry" />
        </mxCell>
        <mxCell id="t10QagFbox6d3jLnH6TC-5" value="1. Select create product" style="text;align=center;fontStyle=1;verticalAlign=middle;spacingLeft=3;spacingRight=3;strokeColor=none;rotatable=0;points=[[0,0.5],[1,0.5]];portConstraint=eastwest;" vertex="1" parent="1">
          <mxGeometry x="130" y="284" width="80" height="26" as="geometry" />
        </mxCell>
        <mxCell id="t10QagFbox6d3jLnH6TC-11" value="4. Validate format" style="text;align=center;fontStyle=1;verticalAlign=middle;spacingLeft=3;spacingRight=3;strokeColor=none;rotatable=0;points=[[0,0.5],[1,0.5]];portConstraint=eastwest;" vertex="1" parent="1">
          <mxGeometry x="425" y="230" width="80" height="26" as="geometry" />
        </mxCell>
        <mxCell id="t10QagFbox6d3jLnH6TC-12" value="5. CreateProduct()" style="text;align=center;fontStyle=1;verticalAlign=middle;spacingLeft=3;spacingRight=3;strokeColor=none;rotatable=0;points=[[0,0.5],[1,0.5]];portConstraint=eastwest;" vertex="1" parent="1">
          <mxGeometry x="550" y="284" width="80" height="26" as="geometry" />
        </mxCell>
        <mxCell id="t10QagFbox6d3jLnH6TC-13" value="NewProduct" style="ellipse;shape=umlEntity;whiteSpace=wrap;html=1;" vertex="1" parent="1">
          <mxGeometry x="750" y="474" width="75" height="70" as="geometry" />
        </mxCell>
        <mxCell id="t10QagFbox6d3jLnH6TC-15" value="7.Create()" style="text;align=center;fontStyle=1;verticalAlign=middle;spacingLeft=3;spacingRight=3;strokeColor=none;rotatable=0;points=[[0,0.5],[1,0.5]];portConstraint=eastwest;" vertex="1" parent="1">
          <mxGeometry x="780" y="420" width="80" height="26" as="geometry" />
        </mxCell>
        <mxCell id="t10QagFbox6d3jLnH6TC-22" value="8. Display screen for details to fill in" style="text;align=center;fontStyle=1;verticalAlign=middle;spacingLeft=3;spacingRight=3;strokeColor=none;rotatable=0;points=[[0,0.5],[1,0.5]];portConstraint=eastwest;" vertex="1" parent="1">
          <mxGeometry x="550" y="338" width="80" height="26" as="geometry" />
        </mxCell>
        <mxCell id="t10QagFbox6d3jLnH6TC-25" value="3. Select type and fill in details" style="text;align=center;fontStyle=1;verticalAlign=middle;spacingLeft=3;spacingRight=3;strokeColor=none;rotatable=0;points=[[0,0.5],[1,0.5]];portConstraint=eastwest;" vertex="1" parent="1">
          <mxGeometry x="130" y="328" width="80" height="26" as="geometry" />
        </mxCell>
        <mxCell id="t10QagFbox6d3jLnH6TC-28" value="6. Validate any existing product" style="text;align=center;fontStyle=1;verticalAlign=middle;spacingLeft=3;spacingRight=3;strokeColor=none;rotatable=0;points=[[0,0.5],[1,0.5]];portConstraint=eastwest;" vertex="1" parent="1">
          <mxGeometry x="840" y="240" width="80" height="26" as="geometry" />
        </mxCell>
        <mxCell id="t10QagFbox6d3jLnH6TC-29" value="9. Display Error message &quot;Product exist&quot;" style="text;align=center;fontStyle=1;verticalAlign=middle;spacingLeft=3;spacingRight=3;strokeColor=none;rotatable=0;points=[[0,0.5],[1,0.5]];portConstraint=eastwest;" vertex="1" parent="1">
          <mxGeometry x="550" y="364" width="80" height="26" as="geometry" />
        </mxCell>
        <mxCell id="t10QagFbox6d3jLnH6TC-30" value="10. Re enter detials" style="text;align=center;fontStyle=1;verticalAlign=middle;spacingLeft=3;spacingRight=3;strokeColor=none;rotatable=0;points=[[0,0.5],[1,0.5]];portConstraint=eastwest;" vertex="1" parent="1">
          <mxGeometry x="130" y="354" width="80" height="26" as="geometry" />
        </mxCell>
      </root>
    </mxGraphModel>
  </diagram>
</mxfile>
